<svg xmlns="http://www.w3.org/2000/svg" viewBox="0 0 327.18 115.53"><defs><style>.cls-5{fill:none;stroke:#fff;stroke-width:1.5px;stroke-linecap:round;stroke-miterlimit:10}.cls-6{fill:#fff}</style></defs><g id="Layer_2" data-name="Layer 2"><g id="Layer_1-2" data-name="Layer 1"><g id="시안1"><g id="모꼬지"><text style="fill:#f05722;font-size:94.56px;font-family:LOTTERIACHAB,LOTTERIA CHAB" transform="translate(28.33 80.07)">ㅁ<tspan x="89.83" y="0" style="letter-spacing:0;fill:#ee5e9d">ㄲ</tspan><tspan x="179.66" y="0" style="fill:#f4a31d;letter-spacing:0">ㅈ</tspan></text><g id="주황색_얼굴" data-name="주황색 얼굴"><path d="M65.54 40.58h20.58v9.51H65.54z" style="fill:#f05722"/><path d="M84.57 38.06a3.34 3.34 0 0 0-4.71-.39" class="cls-5"/><circle cx="67.91" cy="37.67" r="2.75" class="cls-6"/><path d="M77.91 43.46c0 1.2-1.34 2.17-3 2.17s-3-1-3-2.17" style="stroke-linejoin:round;stroke-linecap:round;stroke:#fff;stroke-width:1.5px;fill:none"/></g><g id="핑크색_얼굴" data-name="핑크색 얼굴"><circle cx="159.79" cy="35.31" r="2.75" class="cls-6"/><circle cx="171.92" cy="35.31" r="2.75" class="cls-6"/><path d="M169.34 40c0 1.19-1.46 2.16-3.27 2.16s-3.26-1-3.26-2.16" class="cls-5"/></g><g id="노란색_얼굴" data-name="노란색 얼굴"><circle cx="240.91" cy="25.71" r="2.75" class="cls-6"/><circle cx="253.04" cy="25.71" r="2.75" class="cls-6"/><circle cx="246.69" cy="31.45" r="2.11" class="cls-6"/></g></g><path d="m1.5 49.49 6-7.22a57.13 57.13 0 0 0 9.2-15.18 84.5 84.5 0 0 0 3.3-9.71L24.25 1.5h278.68l5.15 17.14 2.66 7.63c2 5 3.7 8.11 8.56 14.34l6.38 7.39" style="stroke-width:3px;stroke:#231f20;stroke-linejoin:round;fill:none;stroke-linecap:round"/><text style="font-size:10.44px;fill:#000333;font-family:AdobeMyungjoStd-Medium-KSCpc-EUC-H,Adobe Myungjo Std" transform="translate(113.56 111.25)">전통시장에 대한 모든것<tspan x="111.33" y="0" style="font-size:20.88px"> </tspan><tspan x="118.29" y="0" style="fill:#231f20;stroke-width:.5px;font-size:24.36px;stroke:#231f20;stroke-miterlimit:10">모꼬지</tspan></text><path d="M28.33 107.56h79.5" style="stroke-width:.25px;stroke:#231f20;stroke-miterlimit:10;fill:none"/></g></g></g></svg>